<svg width="77" height="64" viewBox="0 0 77 64" fill="none" xmlns="http://www.w3.org/2000/svg">
<path d="M41.469 64V42.1526C41.469 30.8434 44.4632 21.5904 50.4515 14.3936C56.4398 7.02544 65.2226 2.22758 76.8 0V11.5663C70.4125 12.9371 65.7217 15.5074 62.7275 19.2771C59.7334 22.8755 57.8371 27.502 57.0387 33.1566H70.8117V64H41.469ZM0 64V42.1526C0 30.8434 2.89433 21.5904 8.68303 14.3936C14.6713 7.02544 23.4542 2.22758 35.0316 0V11.5663C28.8437 12.9371 24.1528 15.5074 20.9591 19.2771C17.9649 22.8755 16.1684 27.502 15.5696 33.1566H29.0433V64H0Z" fill="#37FFB7"/>
</svg>
